<?xml version="1.0" standalone="no"?>
<!DOCTYPE svg PUBLIC "-//W3C//DTD SVG 20010904//EN"
 "http://www.w3.org/TR/2001/REC-SVG-20010904/DTD/svg10.dtd">
<svg version="1.0" xmlns="http://www.w3.org/2000/svg"
 width="983.000000pt" height="983.000000pt" viewBox="0 0 983.000000 983.000000"
 preserveAspectRatio="xMidYMid meet">
<metadata>
Created by potrace 1.14, written by Peter Selinger 2001-2017
</metadata>
<g transform="translate(0.000000,983.000000) scale(0.100000,-0.100000)"
fill="#000000" stroke="none">
<path d="M0 4915 l0 -4915 4915 0 4915 0 0 4915 0 4915 -4915 0 -4915 0 0
-4915z m2555 2052 c287 -38 499 -97 667 -184 305 -157 515 -430 605 -788 26
-104 28 -122 28 -335 -1 -195 -4 -239 -23 -327 -119 -544 -461 -879 -1019
-997 -246 -52 -347 -58 -940 -63 l-553 -5 0 -799 0 -799 -345 0 -345 0 0 2161
0 2161 903 -5 c751 -4 922 -7 1022 -20z m2298 -44 c9 -38 139 -599 291 -1248
307 -1317 349 -1511 441 -2037 9 -54 20 -98 24 -98 4 0 20 66 35 147 42 216
141 603 248 968 52 176 204 695 339 1152 l244 833 311 0 311 0 318 -1080 c174
-595 342 -1172 371 -1283 53 -196 130 -532 155 -669 7 -38 16 -68 21 -68 10 0
13 14 38 170 67 407 120 649 431 1985 154 660 285 1221 290 1248 l11 47 354 0
c195 0 354 -4 354 -8 0 -7 -1059 -4177 -1101 -4334 l-10 -38 -314 0 -313 0
-41 123 c-387 1180 -520 1584 -606 1847 -136 414 -191 640 -241 990 -23 166
-34 170 -54 20 -19 -145 -69 -410 -105 -557 -19 -78 -187 -607 -374 -1175
-187 -568 -355 -1080 -373 -1138 l-34 -105 -317 -3 c-174 -1 -317 1 -317 4 0
6 -1094 4312 -1106 4357 -5 16 16 17 349 17 l355 0 15 -67z"/>
<path d="M1320 5631 l0 -801 448 0 c487 0 616 9 795 54 151 39 238 85 328 175
87 87 144 191 181 326 29 109 32 384 5 490 -70 275 -273 447 -617 523 -113 25
-124 25 -627 29 l-513 4 0 -800z"/>
</g>
</svg>
